# xmcd
#
# Track frame offsets: 
#        150
#        15493
#        30839
#        43038
#        56636
#        69667
#        82298
#        94909
#        110095
#        127279
#        141267
#        152701
#        165742
#        176875
#
# Disc length: 2516 seconds
#
# Revision: 1
# Processed by: cddbd v1.5.2PL0 Copyright (c) Steve Scherf et al.
# Submitted via: ExactAudioCopy v1.0b1
#
DISCID=c909d20e
DTITLE=Henk Wijngaard - 'n Sneeuwwitte Bruidsjurk
DYEAR=1989
DGENRE=Dutch
TTITLE0='n Sneeuwwitte bruidsjurk
TTITLE1=Belle Sabine
TTITLE2=Bakker de Baksteen
TTITLE3=Samen in 'n truck
TTITLE4=Dirkie
TTITLE5=Truckstop Tilly
TTITLE6=Ik rij mijn diesel
TTITLE7=Zo, zoals je bent
TTITLE8=Met z'n gitaar en z'n liedjes
TTITLE9=Dikke diesel
TTITLE10=Er zat 'n tijger in de tank
TTITLE11=Zet me in 'n 18-wieler
TTITLE12=Met m'n haren in de wind
TTITLE13=De kleuter langs de autobaan
EXTD=
EXTT0=
EXTT1=
EXTT2=
EXTT3=
EXTT4=
EXTT5=
EXTT6=
EXTT7=
EXTT8=
EXTT9=
EXTT10=
EXTT11=
EXTT12=
EXTT13=
PLAYORDER=
